<svg xmlns="http://www.w3.org/2000/svg" width="29" height="29" viewBox="0 0 29 29">
    <path fill="#FFF" d="M20.212.584c2.241-.078 4.416.77 6.013 2.344 1.54 1.597 2.368 3.749 2.297 5.966v11.791c0 2.462-.805 4.581-2.344 6.073-1.632 1.507-3.793 2.311-6.014 2.237H8.468c-2.202.069-4.342-.736-5.954-2.237C.898 25.14.028 22.923.11 20.638V8.894c0-4.996 3.314-8.31 8.31-8.31h11.79zm.059 2.64H8.468c-1.716 0-3.196.509-4.178 1.48-1.061 1.13-1.617 2.642-1.54 4.19v11.744c0 1.775.51 3.196 1.54 4.238 1.148 1.016 2.646 1.546 4.178 1.48h11.696c1.532.066 3.03-.464 4.18-1.48 1.114-1.103 1.715-2.624 1.657-4.191V8.895c.038-1.525-.514-3.005-1.54-4.132-1.13-1.061-2.642-1.617-4.19-1.54zm-5.955 4.179c4.013 0 7.34 3.314 7.34 7.34 0 4.053-3.286 7.339-7.34 7.339-4.053 0-7.34-3.286-7.34-7.34 0-4.053 3.287-7.34 7.34-7.34zm0 2.628c-2.59.013-4.686 2.11-4.7 4.7.014 2.59 2.11 4.686 4.7 4.7 2.59-.014 4.687-2.11 4.7-4.7-.013-2.59-2.11-4.687-4.7-4.7zm7.624-4.463c.915 0 1.657.742 1.657 1.657s-.742 1.657-1.657 1.657-1.657-.742-1.657-1.657.742-1.657 1.657-1.657z"/>
</svg>
