<svg xmlns="http://www.w3.org/2000/svg" width="29" height="29" viewBox="0 0 29 29">
    <path fill="#FFF" d="M26.693.579H2.464C1.316.579.368 1.49.368 2.616v24.347c0 1.125.948 2.037 2.096 2.037h24.23c1.16 0 2.095-.912 2.095-2.037V2.616c0-1.125-.947-2.037-2.096-2.037zM8.978 24.382H4.69v-12.86h4.287v12.86zM6.846 9.768h-.035c-1.445 0-2.369-.982-2.369-2.214 0-1.255.947-2.215 2.428-2.215 1.468 0 2.368.948 2.392 2.215 0 1.232-.924 2.214-2.428 2.214h.012zm17.61 14.614h-4.3v-6.869c0-1.717-.615-2.901-2.167-2.901-1.184 0-1.894.793-2.214 1.563-.118.272-.13.651-.13 1.042v7.165h-4.287s.06-11.63 0-12.837h4.299v1.823c.79-1.372 2.277-2.193 3.86-2.131 2.83 0 4.95 1.847 4.95 5.79v7.355h-.012z"/>
</svg>
