<svg xmlns="http://www.w3.org/2000/svg" width="28" height="30" viewBox="0 0 28 30">
    <path fill="#FFF" d="M27.008 17.174v8.785c0 .55-.115 1.05-.35 1.51-.231.463-.549.867-.951 1.214-.401.35-.864.62-1.39.82-.529.199-1.097.3-1.71.3H4.65c-.598 0-1.162-.101-1.69-.3-.527-.2-.991-.47-1.39-.82-.398-.347-.719-.751-.954-1.214-.232-.46-.348-.96-.348-1.51v-8.785c0-.52.116-1.018.35-1.49.233-.474.555-.883.953-1.22.4-.34.864-.617 1.391-.822.527-.205 1.091-.31 1.69-.31h17.957c.598 0 1.164.105 1.699.31.534.205 1 .482 1.4.821.403.34.719.749.953 1.22.233.473.347.97.347 1.491zM5.853 26.94v-9.267h2.203v-1.4H2.109v1.36h1.906v9.307h1.838zm.899-21.557L4.29 0h2.143l1.225 4.023L8.878 0h2.14L8.713 5.383v6.268H6.752V5.383zm5.786 13.651h-1.84v4.947c0 .358.004.636.018.827.013.196-.014.32-.08.371-.055.214-.21.37-.474.471-.254.098-.451-.041-.589-.431-.028-.052-.031-.183-.017-.388.012-.209.017-.479.017-.814l-.038-4.983h-1.84l.042 4.906c0 .385-.01.707-.022.968-.013.26-.01.456.022.59l.077.692c.025.245.152.444.382.59.213.133.463.203.747.203.29 0 .572-.05.843-.144.277-.095.526-.223.76-.387.232-.166.404-.346.508-.532l-.036.979 1.52.04v-7.905zM10.855 6.205c0-.734.071-1.343.2-1.819.165-.495.422-.85.784-1.064.362-.267.821-.4 1.382-.4.492 0 .903.081 1.24.24.332.133.607.365.82.7.161.243.283.513.362.823.075.333.118.78.118 1.342v2.098c0 .763-.043 1.31-.118 1.646-.032.304-.161.645-.405 1.02-.238.331-.497.552-.776.66-.338.16-.714.238-1.144.238-.435 0-.841-.066-1.198-.2-.336-.106-.584-.3-.74-.578-.16-.218-.296-.515-.405-.904-.077-.363-.12-.904-.12-1.64V6.205zm1.642 3.262c0 .214.08.405.242.572.158.164.354.248.578.248.211 0 .404-.08.571-.24.168-.158.248-.354.248-.58V5.124c0-.24-.08-.44-.248-.608-.165-.168-.36-.253-.57-.253-.213 0-.404.085-.568.253-.167.167-.253.368-.253.608v4.343zm5.985 15.212v-4.104c0-.786-.278-1.348-.837-1.68-.187-.106-.404-.16-.643-.16-.442 0-.947.206-1.52.62v-3.082H13.64V26.86l1.522-.04.118-.66c.494.416.941.668 1.331.762.396.091.726.055 1.001-.112.275-.165.488-.438.64-.822.151-.378.229-.819.229-1.31zm-2.219-4.923c.213 0 .4.063.569.19.165.127.25.27.25.429v4.645c0 .16-.085.297-.25.418-.17.12-.357.182-.569.182-.216 0-.404-.062-.575-.182-.164-.12-.244-.259-.244-.418v-4.645c0-.16.082-.302.244-.428.17-.128.359-.191.575-.191zm.858-8.926c-.048-.107-.086-.221-.098-.332-.016-.112-.034-.224-.064-.33-.025-.134-.037-.314-.037-.543v-6.38h1.72v6.363c0 .163.06.298.18.421.124.119.28.18.48.18.189 0 .348-.061.48-.18.136-.121.206-.258.206-.421V3.245h1.596v8.166h-2.037l.037-.66c-.188.265-.365.474-.54.619-.213.133-.446.2-.701.2-.305 0-.56-.067-.761-.2-.176-.118-.329-.3-.461-.54zm7.165 13.331h-1.379v.899c0 .214-.077.378-.23.498-.153.122-.336.179-.548.179h-.286c-.211 0-.385-.057-.527-.179-.14-.12-.213-.285-.213-.499V23.157h3.183v-1.1c0-.413-.007-.81-.02-1.19-.013-.382-.045-.679-.099-.889-.053-.363-.214-.653-.492-.873-.272-.22-.59-.37-.959-.448-.366-.084-.74-.096-1.122-.041-.38.053-.706.178-.992.379-.357.24-.616.568-.778.983-.161.41-.24.986-.24 1.721v2.464c0 1.037.276 1.78.822 2.22.506.412 1.038.62 1.598.62h.164c.629-.038 1.181-.306 1.663-.8.36-.36.54-.836.54-1.42-.02-.19-.043-.398-.085-.622zm-1.421-2.346h-1.76l.039-.978c0-.214.08-.388.24-.532.16-.14.352-.211.582-.211h.08c.238 0 .441.068.61.2.165.134.251.314.251.543l-.042.978z"/>
</svg>
