<svg xmlns="http://www.w3.org/2000/svg" width="186" height="50" viewBox="0 0 186 50">
    <g fill="none">
        <path fill="#FFF" d="M103.694 45.778L103.625 45.778 99.792 40.042 99.792 48.792 97.667 48.792 97.667 36.556 99.958 36.556 103.681 42.333 107.403 36.556 109.694 36.556 109.694 48.792 107.556 48.792 107.556 40.014zM124.625 45.097c-.325.761-.797 1.45-1.389 2.028-.58.589-1.269 1.06-2.028 1.389-.815.352-1.695.528-2.583.514-.89.01-1.774-.16-2.597-.5-.756-.32-1.437-.793-2-1.39-.592-.566-1.065-1.246-1.39-2-.629-1.573-.629-3.328 0-4.902.631-1.528 1.84-2.746 3.362-3.389.818-.341 1.697-.511 2.583-.5.89-.008 1.771.158 2.598.486.752.325 1.432.798 2 1.39.595.569 1.068 1.254 1.388 2.013.63 1.57.63 3.32 0 4.889m-2.097-4.097c-.375-1.04-1.157-1.882-2.166-2.334-.529-.236-1.102-.354-1.681-.347-1.126-.022-2.207.438-2.972 1.264-.374.4-.663.873-.847 1.389-.408 1.083-.408 2.278 0 3.361.188.514.476.986.847 1.389.393.403.866.72 1.389.93.527.24 1.1.364 1.68.362.574.003 1.142-.116 1.667-.348.498-.21.944-.528 1.305-.93.373-.402.661-.874.848-1.389.406-1.088.406-2.287 0-3.375M136.222 36.556L138.361 36.556 138.361 48.792 136.569 48.792 129.833 40.083 129.833 48.792 127.694 48.792 127.694 36.556 129.681 36.556 136.222 45.014zM143.43 40.375c.106.2.258.372.445.5.282.176.586.316.903.417.375.125.86.264 1.389.402.58.142 1.152.323 1.708.542.45.17.868.414 1.236.722.315.276.567.617.736 1 .196.436.286.912.264 1.39.01.536-.104 1.069-.333 1.555-.202.448-.507.843-.89 1.153-.407.334-.88.58-1.388.722-.574.16-1.168.24-1.764.236-.947.014-1.889-.146-2.778-.472-.884-.338-1.695-.842-2.389-1.486l1.292-1.528c.54.474 1.143.871 1.792 1.18.655.275 1.36.412 2.07.403.558.03 1.111-.116 1.583-.417.368-.262.585-.687.583-1.138 0-.205-.037-.407-.111-.598-.101-.187-.244-.348-.417-.472-.26-.18-.546-.32-.847-.417-.361-.125-.82-.263-1.389-.402-.592-.136-1.176-.303-1.75-.5-.46-.17-.89-.41-1.278-.709-.342-.268-.614-.616-.791-1.014-.183-.44-.273-.912-.264-1.388-.023-.994.406-1.944 1.166-2.584.409-.336.881-.587 1.39-.736.538-.171 1.1-.256 1.666-.25 1.62-.044 3.2.504 4.444 1.542l-1.097 1.514c-.512-.383-1.072-.696-1.667-.93-.523-.22-1.085-.332-1.652-.334-.526-.03-1.046.122-1.473.43-.32.253-.513.634-.527 1.042-.008.215.035.43.125.625M157.611 48.792L155.444 48.792 155.444 38.542 151.556 38.542 151.556 36.556 161.486 36.556 161.486 38.542 157.611 38.542zM172.819 38.486L165.889 38.486 165.889 41.639 172.028 41.639 172.028 43.583 165.889 43.583 165.889 46.847 172.903 46.847 172.903 48.792 163.764 48.792 163.764 36.556 172.819 36.556zM183.333 48.792l-3.014-4.264h-2.694v4.264h-2.139V36.556h5.458c.64-.011 1.277.078 1.89.263.507.17.979.434 1.388.778.39.33.696.75.89 1.222.223.507.332 1.058.319 1.612.011.472-.064.943-.223 1.388-.137.388-.339.75-.597 1.07-.262.306-.572.569-.917.778-.366.225-.764.393-1.18.5l3.305 4.639-2.486-.014zm-.694-9.723c-.549-.38-1.209-.566-1.875-.527h-3.139v4.166h3.153c.657.038 1.307-.159 1.833-.555.459-.366.717-.928.695-1.514.04-.588-.209-1.158-.667-1.528M105.556 28.5l-3.056-4.264h-2.778V28.5h-2.055V16.264h5.458c.64-.006 1.277.088 1.889.278.509.16.981.42 1.389.764.392.331.7.75.903 1.222.216.514.325 1.067.319 1.625.015.473-.06.944-.222 1.389-.135.389-.337.75-.597 1.07-.266.306-.575.573-.917.79-.372.215-.768.383-1.18.5l3.305 4.626-2.458-.028zm-.709-9.722c-.55-.376-1.21-.557-1.875-.514h-3.18v4.167h3.166c.658.038 1.308-.16 1.834-.556.451-.37.703-.93.68-1.514.04-.591-.208-1.166-.666-1.542M119.972 18.208L113.042 18.208 113.042 21.361 119.181 21.361 119.181 23.292 113.042 23.292 113.042 26.569 120.056 26.569 120.056 28.5 110.917 28.5 110.917 16.264 119.972 16.264zM132.653 16.264L134.986 16.264 129.889 28.597 128.014 28.597 122.917 16.264 125.292 16.264 128.986 25.667zM146.903 18.208L139.972 18.208 139.972 21.361 146.111 21.361 146.111 23.292 139.972 23.292 139.972 26.569 146.986 26.569 146.986 28.5 137.847 28.5 137.847 16.264 146.903 16.264zM158.389 16.264L160.514 16.264 160.514 28.5 158.722 28.5 151.986 19.806 151.986 28.5 149.847 28.5 149.847 16.264 151.847 16.264 158.389 24.722zM173.847 23.208c.016.812-.111 1.621-.375 2.39-.219.645-.58 1.233-1.055 1.721-.463.471-1.029.828-1.653 1.042-.703.232-1.44.344-2.18.333-.727.01-1.45-.102-2.14-.333-1.288-.445-2.288-1.476-2.694-2.778-.262-.744-.39-1.53-.375-2.32v-7h2.139v6.945c-.066.943.227 1.875.82 2.611 1.294 1.167 3.26 1.167 4.555 0 .603-.703.903-1.617.833-2.541v-7.014h2.125v6.944zM185.764 18.208L178.847 18.208 178.847 21.361 184.986 21.361 184.986 23.292 178.847 23.292 178.847 26.569 185.861 26.569 185.861 28.5 176.708 28.5 176.708 16.264 185.764 16.264zM73.264 24.403H81.40299999999999V48.792H73.264zM24.431 32.542H32.57V48.792H24.431zM0 8.125L0 16.264 24.431 16.264 24.431 24.403 32.569 24.403 32.569 16.264 32.569 8.569 32.569 8.125zM0 29.847L0 32.542 0 48.833 8.139 48.833 8.139 32.542 24.431 32.542 24.431 24.403 0 24.403zM40.708 8.125L47.736 8.125 56.986 8.125 56.986 16.264 73.264 16.264 73.264 24.403 65.125 24.403 65.125 32.542 56.986 32.542 56.986 24.403 48.847 24.403 48.847 48.833 40.708 48.833z"/>
        <path fill="#4F3DF5" d="M73.264 0L81.403 0 77.333 4.069z"/>
        <path fill="#4A89F7" d="M81.403 8.139L73.264 8.139 77.333 4.069z"/>
        <path fill="#4757F6" d="M73.264 8.139L73.264 0 77.333 4.069zM81.403 0L81.403 8.139 77.333 4.069z"/>
        <path fill="#4B92F8" d="M73.264 8.139L81.403 8.139 77.333 12.208z"/>
        <path fill="#55AFF3" d="M81.403 16.264L73.264 16.264 77.333 12.194z"/>
        <path fill="#4E9DF2" d="M73.264 16.264L73.264 8.139 77.333 12.194z"/>
        <path fill="#5EB9EF" d="M81.403 8.139L81.403 16.264 77.333 12.208z"/>
        <path fill="#5FD9ED" d="M81.403 8.139L89.528 8.139 85.458 12.208z"/>
        <path fill="#77EDD7" d="M89.528 16.264L81.403 16.264 85.458 12.194z"/>
        <path fill="#60D0EA" d="M81.403 16.264L81.403 8.139 85.458 12.194z"/>
        <path fill="#95EFDE" d="M89.528 8.139L89.528 16.264 85.458 12.208z"/>
        <path fill="#4854F6" d="M65.125 8.139L73.264 8.139 69.194 12.208z"/>
        <path fill="#4757F6" d="M73.264 16.264L65.125 16.264 69.194 12.194z"/>
        <path fill="#4F3DF5" d="M65.125 16.264L65.125 8.139 69.194 12.194z"/>
        <path fill="#4A89F7" d="M73.264 8.139L73.264 16.264 69.194 12.208z"/>
        <path fill="#60D0EA" d="M73.264 16.264L81.403 16.264 77.333 20.333z"/>
        <path fill="#77EDD7" d="M81.403 24.403L73.264 24.403 77.333 20.333z"/>
        <path fill="#5FD9ED" d="M73.264 24.403L73.264 16.264 77.333 20.333z"/>
        <path fill="#95EFDE" d="M81.403 16.264L81.403 24.403 77.333 20.333z"/>
    </g>
</svg>
