<svg width="210" height="46" viewBox="0 0 210 46" fill="none" xmlns="http://www.w3.org/2000/svg">
<g clip-path="url(#clip0_1754_4454)">
<path d="M82.6201 2.83783H84.5142V42.5676H82.6201V2.83783Z" fill="url(#paint0_linear_1754_4454)"/>
<path d="M9.13379 10.5873V16.7165H27.5465V22.8457H33.6787V16.7165V10.9254V10.5873H9.13379Z" fill="white"/>
<path d="M27.5491 22.8457H9.21387V28.9866H27.5491V22.8457Z" fill="white"/>
<path d="M5.69824 26.9485V28.9759V41.2386H11.8347V28.9759H24.1109V22.8499H5.69824V26.9485Z" fill="white"/>
<path d="M33.6834 28.9759H27.5469V41.2077H33.6834V28.9759Z" fill="white"/>
<path d="M11.8305 10.5852H5.69824V28.9462H11.8305V10.5852Z" fill="white"/>
<path d="M70.4448 22.8202H64.3125V41.1812H70.4448V22.8202Z" fill="white"/>
<path d="M39.7705 10.5607H45.0693H52.0435V16.6942H64.3123V22.8202H58.18V28.9494H52.0435V22.8202H45.9113V41.212H39.7705V10.5607Z" fill="white"/>
<path d="M64.3125 4.44741H70.4448L67.3765 7.50829L64.3125 4.44741Z" fill="#4E41F5"/>
<path d="M70.4448 10.5692H64.3125L67.3765 7.50829L70.4448 10.5692Z" fill="#4A89F7"/>
<path d="M64.3125 10.5692V4.44741L67.3765 7.50829L64.3125 10.5692Z" fill="#025FF5"/>
<path d="M70.4452 4.44742V10.5692L67.377 7.50829L70.4452 4.44742Z" fill="#025FF5"/>
<path d="M64.3125 10.5692H70.4448L67.3765 13.6333L64.3125 10.5692Z" fill="#CE50F2"/>
<path d="M70.4448 16.6941H64.3125L67.3765 13.6332L70.4448 16.6941Z" fill="#EA3D9B"/>
<path d="M64.3125 16.6941V10.5692L67.3765 13.6333L64.3125 16.6941Z" fill="#BD08F3"/>
<path d="M70.4452 10.5692V16.6941L67.377 13.6333L70.4452 10.5692Z" fill="#DF078C"/>
<path d="M70.4453 10.5692H76.5733L73.5093 13.6333L70.4453 10.5692Z" fill="#FE19A1"/>
<path d="M76.5733 16.6941H70.4453L73.5093 13.6332L76.5733 16.6941Z" fill="#DE008C"/>
<path d="M70.4453 16.6941V10.5692L73.5093 13.6333L70.4453 16.6941Z" fill="#E43D8F"/>
<path d="M76.5728 10.5692V16.6941L73.5088 13.6333L76.5728 10.5692Z" fill="#F970B0"/>
<path d="M58.1807 10.5692H64.3129L61.2447 13.6333L58.1807 10.5692Z" fill="#4854F6"/>
<path d="M64.3129 16.6941H58.1807L61.2447 13.6332L64.3129 16.6941Z" fill="#4757F6"/>
<path d="M58.1807 16.6941V10.5692L61.2447 13.6333L58.1807 16.6941Z" fill="#4F3DF5"/>
<path d="M64.3134 10.5692V16.6941L61.2451 13.6333L64.3134 10.5692Z" fill="#9568ED"/>
<path d="M64.3125 16.6941H70.4448L67.3765 19.755L64.3125 16.6941Z" fill="#FE0298"/>
<path d="M70.4448 22.8201H64.3125L67.3765 19.755L70.4448 22.8201Z" fill="#E04990"/>
<path d="M64.3125 22.8201V16.6941L67.3765 19.755L64.3125 22.8201Z" fill="#D5375E"/>
<path d="M70.4452 16.6941V22.8201L67.377 19.755L70.4452 16.6941Z" fill="#F772B0"/>
<path d="M133.524 16.3911H130.851V8.35035H133.524V16.3922H136.197V19.0693H138.871V21.7463H136.197V19.0693H133.524V16.3922V16.3911ZM138.872 16.3911H141.545V19.0682H138.872V16.3911ZM141.593 8.35991H144.266V16.4018H141.593V8.35991Z" fill="white"/>
<path d="M164.28 21.4072H161.673V8.37056H164.28V10.9817H166.888V13.5929H169.495V16.204H172.103V8.36205H174.729V21.3976H172.122V18.7865H169.514V16.1753H166.907V13.5642H164.299V21.4061H164.28V21.4072Z" fill="white"/>
<path d="M177.017 8.34292H179.625V18.796H187.456V8.34292H190.063V21.3785H177.008L177.017 8.34292Z" fill="white"/>
<path d="M103.558 8.36203V10.953H111.342V13.5439H113.934V10.953V8.5045V8.36203H103.558Z" fill="white"/>
<path d="M111.36 13.544H103.188V16.1402H111.36V13.544Z" fill="white"/>
<path d="M100.983 15.278V16.136V21.32H103.577V16.136H108.768V13.5461H100.983V15.278Z" fill="white"/>
<path d="M113.938 16.136H111.343V21.3072H113.938V16.136Z" fill="white"/>
<path d="M103.576 8.36093H100.983V16.1232H103.576V8.36093Z" fill="white"/>
<path d="M116.355 8.34292H128.343V10.9541C125.204 10.9721 122.065 10.9902 118.926 11.0083V13.5599C120.466 13.562 122.006 13.5631 123.546 13.5652V16.1764C122.006 16.1902 120.466 16.204 118.926 16.2178V18.7695C122.062 18.7758 125.198 18.7812 128.334 18.7875V21.3987H116.355C116.355 21.4083 116.355 8.34399 116.355 8.34399V8.34292Z" fill="white"/>
<path d="M126.146 13.5599H120.52V16.1966H126.146V13.5599Z" fill="white"/>
<path d="M147.075 8.34292H159.063V10.9541C155.923 10.9721 152.785 10.9902 149.646 11.0083V13.5599C151.186 13.562 152.725 13.5631 154.266 13.5652V16.1764C152.725 16.1902 151.186 16.204 149.646 16.2178V18.7695C152.782 18.7758 155.918 18.7812 159.054 18.7875V21.3987H147.075C147.075 21.4083 147.075 8.34399 147.075 8.34399V8.34292Z" fill="white"/>
<path d="M156.866 13.5599H151.239V16.1966H156.866V13.5599Z" fill="white"/>
<path d="M192.282 8.34292H204.27V10.9541C201.13 10.9721 197.992 10.9902 194.853 11.0083V13.5599C196.393 13.562 197.932 13.5631 199.473 13.5652V16.1764C197.932 16.1902 196.393 16.204 194.853 16.2178V18.7695C197.989 18.7758 201.125 18.7812 204.261 18.7875V21.3987H192.282C192.282 21.4083 192.282 8.34398 192.282 8.34398V8.34292Z" fill="white"/>
<path d="M202.073 13.5599H196.446V16.1966H202.073V13.5599Z" fill="white"/>
<path d="M116.109 28.5272H129.182V41.5819H116.109V28.5272ZM118.746 38.9782H126.582V31.1671H118.746V38.9782Z" fill="white"/>
<path d="M133.895 41.5819H131.295V28.5272H133.895V31.1309H136.495V33.7347H139.095V36.3384H141.695V28.5272H144.295V41.5819H141.695V38.9782H139.095V36.3745H136.495V33.7708H133.895V41.5819Z" fill="white"/>
<path d="M146.443 28.5272H159.516V31.1309H149.07V33.7347H159.506V41.5458H146.442V38.9421H156.879V36.3384H146.442V28.5272H146.443Z" fill="white"/>
<path d="M161.594 28.5272H174.666V31.131H169.43V41.5819H166.83V31.131H161.594V28.5272Z" fill="white"/>
<path d="M193.945 28.5421V31.1331H201.73V33.724H204.322V31.1331V28.6846V28.5421H193.945Z" fill="white"/>
<path d="M201.748 33.7241H193.575V36.3203H201.748V33.7241Z" fill="white"/>
<path d="M191.371 35.4581V36.3161V41.5001H193.966V36.3161H199.155V33.7262H191.371V35.4581Z" fill="white"/>
<path d="M204.325 36.3161H201.73V41.4873H204.325V36.3161Z" fill="white"/>
<path d="M193.964 28.5411H191.371V36.3033H193.964V28.5411Z" fill="white"/>
<path d="M177.285 28.5092H189.273V31.1203C186.133 31.1384 182.995 31.1565 179.855 31.1746V33.7262C181.396 33.7283 182.935 33.7294 184.476 33.7315V36.3426C182.935 36.3565 181.396 36.3703 179.855 36.3841V38.9357C182.992 38.9421 186.128 38.9474 189.264 38.9538V41.565H177.285C177.285 41.5745 177.285 28.5102 177.285 28.5102V28.5092Z" fill="white"/>
<path d="M187.075 33.7251H181.448V36.3618H187.075V33.7251Z" fill="white"/>
<path d="M113.884 33.7208H111.284V41.5075H113.884V33.7208Z" fill="white"/>
<path d="M100.878 28.523H103.124H106.082V31.1235H111.285V33.7208H108.684V36.3203H106.082V33.7208H103.481V41.5214H100.878V28.523Z" fill="white"/>
<path d="M111.284 25.9299H113.885L112.584 27.2281L111.284 25.9299Z" fill="#4E41F5"/>
<path d="M113.885 28.5262H111.284L112.584 27.228L113.885 28.5262Z" fill="#4A89F7"/>
<path d="M111.284 28.5262V25.9299L112.584 27.2281L111.284 28.5262Z" fill="#025FF5"/>
<path d="M113.886 25.9299V28.5262L112.584 27.2281L113.886 25.9299Z" fill="#025FF5"/>
<path d="M111.284 28.5262H113.885L112.584 29.8254L111.284 28.5262Z" fill="#CE50F2"/>
<path d="M113.885 31.1235H111.284L112.584 29.8254L113.885 31.1235Z" fill="#EA3D9B"/>
<path d="M111.284 31.1235V28.5262L112.584 29.8254L111.284 31.1235Z" fill="#BD08F3"/>
<path d="M113.886 28.5262V31.1235L112.584 29.8254L113.886 28.5262Z" fill="#DF078C"/>
<path d="M113.886 28.5262H116.485L115.185 29.8254L113.886 28.5262Z" fill="#FE19A1"/>
<path d="M116.485 31.1235H113.886L115.185 29.8254L116.485 31.1235Z" fill="#DE008C"/>
<path d="M113.886 31.1235V28.5262L115.185 29.8254L113.886 31.1235Z" fill="#E43D8F"/>
<path d="M116.485 28.5262V31.1235L115.186 29.8254L116.485 28.5262Z" fill="#F970B0"/>
<path d="M108.685 28.5262H111.285L109.984 29.8254L108.685 28.5262Z" fill="#4854F6"/>
<path d="M111.285 31.1235H108.685L109.984 29.8254L111.285 31.1235Z" fill="#4757F6"/>
<path d="M108.685 31.1235V28.5262L109.984 29.8254L108.685 31.1235Z" fill="#4F3DF5"/>
<path d="M111.285 28.5262V31.1235L109.984 29.8254L111.285 28.5262Z" fill="#9568ED"/>
<path d="M111.284 31.1235H113.885L112.584 32.4217L111.284 31.1235Z" fill="#FE0298"/>
<path d="M113.885 33.7209H111.284L112.584 32.4217L113.885 33.7209Z" fill="#E04990"/>
<path d="M111.284 33.7209V31.1235L112.584 32.4217L111.284 33.7209Z" fill="#D5375E"/>
<path d="M113.886 31.1235V33.7209L112.584 32.4217L113.886 31.1235Z" fill="#F772B0"/>
</g>
<defs>
<linearGradient id="paint0_linear_1754_4454" x1="83.5671" y1="42.5676" x2="83.5671" y2="2.83783" gradientUnits="userSpaceOnUse">
<stop stop-color="#1E2891"/>
<stop offset="0.34" stop-color="#1E23D7"/>
<stop offset="1" stop-color="#EB018C"/>
</linearGradient>
<clipPath id="clip0_1754_4454">
<rect width="198.788" height="39.7018" fill="white" transform="translate(5.67578 2.83784)"/>
</clipPath>
</defs>
</svg>
